<?xml version="1.0" standalone="no"?>
<!DOCTYPE svg PUBLIC "-//W3C//DTD SVG 20010904//EN"
 "http://www.w3.org/TR/2001/REC-SVG-20010904/DTD/svg10.dtd">
<svg version="1.0" xmlns="http://www.w3.org/2000/svg"
 width="1056.000000pt" height="1056.000000pt" viewBox="0 0 1056.000000 1056.000000"
 preserveAspectRatio="xMidYMid meet">

<g transform="translate(0.000000,1056.000000) scale(0.100000,-0.100000)"
fill="#000000" stroke="none">
<path d="M5475 9755 c-280 -40 -540 -132 -780 -277 -223 -134 -477 -354 -578
-501 -106 -153 -188 -348 -222 -522 -22 -116 -37 -344 -30 -465 22 -395 112
-724 288 -1059 46 -87 201 -333 230 -363 7 -7 46 -58 87 -113 69 -92 420 -451
791 -810 68 -67 263 -256 434 -420 633 -613 749 -734 906 -952 93 -129 238
-397 302 -558 28 -72 84 -251 123 -395 25 -89 32 -105 49 -105 14 0 21 8 23
25 2 14 18 88 37 165 55 230 64 278 91 458 33 215 37 541 10 722 -76 503 -262
839 -687 1235 -159 148 -280 263 -404 382 -49 47 -101 96 -115 108 -183 158
-796 770 -880 878 -232 298 -367 570 -421 845 -32 163 -21 405 22 522 50 134
107 228 190 312 135 137 324 234 564 289 109 25 138 27 315 27 169 0 213 -4
330 -27 425 -83 809 -265 1370 -649 215 -147 320 -231 471 -376 465 -444 794
-990 982 -1631 225 -762 215 -1621 -28 -2344 -178 -532 -396 -906 -769 -1320
-161 -178 -444 -414 -776 -645 -142 -99 -371 -256 -388 -266 -9 -6 -136 -89
-282 -186 -146 -96 -296 -195 -335 -219 -97 -62 -551 -367 -602 -404 -48 -36
-54 -62 -17 -76 41 -16 321 -12 415 6 326 61 795 226 1096 385 182 96 393 223
490 293 23 17 67 49 98 71 55 38 238 183 299 235 230 199 476 461 652 695 132
176 255 365 341 525 94 174 142 269 172 340 18 41 43 100 56 130 13 30 30 71
38 90 8 19 40 110 71 202 102 306 174 642 208 983 17 166 16 663 -1 810 -39
340 -92 612 -162 835 -101 319 -218 599 -358 854 -39 71 -71 131 -71 133 0 11
-216 326 -300 438 -189 252 -456 533 -680 715 -30 25 -62 51 -70 59 -37 36
-267 202 -381 275 -69 45 -134 87 -145 94 -10 6 -26 15 -34 19 -8 4 -33 18
-55 32 -109 67 -454 229 -615 287 -327 119 -538 175 -788 209 -137 18 -447 19
-577 0z"/>
<path d="M4380 9653 c-41 -7 -136 -25 -210 -39 -342 -65 -548 -134 -865 -289
-343 -169 -651 -373 -940 -623 -203 -177 -477 -470 -600 -642 -22 -30 -43 -59
-47 -65 -92 -119 -241 -356 -320 -506 -250 -477 -406 -967 -474 -1494 -22
-171 -31 -687 -14 -869 74 -824 330 -1583 743 -2200 200 -298 427 -558 682
-780 50 -44 104 -91 120 -105 17 -14 41 -33 55 -42 14 -9 36 -27 50 -39 14
-12 36 -30 50 -39 14 -9 30 -19 35 -24 77 -62 363 -246 515 -331 144 -81 476
-238 657 -310 345 -138 638 -193 968 -183 483 16 908 151 1223 389 149 113
283 254 379 398 157 237 255 538 270 825 20 403 -99 797 -379 1260 -98 161
-345 479 -501 643 -198 209 -529 529 -757 732 -52 47 -124 112 -160 146 -36
33 -94 87 -130 120 -147 133 -459 445 -571 569 -62 69 -180 216 -261 325 -133
180 -191 276 -293 480 -52 103 -62 126 -104 223 -29 67 -44 57 -53 -34 -13
-146 -30 -676 -24 -759 19 -252 49 -404 115 -588 54 -148 69 -182 140 -301
115 -193 242 -336 531 -598 150 -136 277 -263 786 -788 324 -334 367 -380 460
-495 274 -338 424 -724 424 -1090 0 -499 -328 -879 -840 -971 -109 -20 -420
-17 -535 5 -110 21 -300 68 -415 103 -165 51 -493 186 -632 262 -132 71 -176
97 -350 205 -99 62 -323 234 -438 336 -336 299 -588 609 -823 1010 -74 126
-247 497 -247 529 0 4 -11 35 -24 68 -24 58 -79 237 -110 359 -57 222 -106
622 -106 865 0 445 83 936 228 1344 129 362 288 703 426 915 211 322 427 561
717 793 190 152 369 269 559 366 469 241 666 377 1151 797 75 65 97 112 67
142 -14 14 -30 14 -128 -5z"/>
</g>
</svg>
